<svg xmlns="http://www.w3.org/2000/svg" width="1920" height="692" style="width:100%;height:100%;transform:translate3d(0,0,0);content-visibility:visible"><defs><filter id="c"><feColorMatrix color-interpolation-filters="sRGB" result="filter_result_0" values="0 0 0 0 0 0 0 0 0 0 0 0 0 0 0 0 0 0 1 0"/></filter><filter id="ah"><feColorMatrix color-interpolation-filters="sRGB" result="filter_result_0" values="0 0 0 0 1 0 0 0 0 1 0 0 0 0 1 0 0 0 1 0"/></filter><filter id="an"><feColorMatrix color-interpolation-filters="sRGB" result="filter_result_0" values="0 0 0 0 1 0 0 0 0 1 0 0 0 0 1 0 0 0 1 0"/></filter><filter id="at"><feColorMatrix color-interpolation-filters="sRGB" result="filter_result_0" values="0 0 0 0 1 0 0 0 0 1 0 0 0 0 1 0 0 0 1 0"/></filter><filter id="az"><feColorMatrix color-interpolation-filters="sRGB" result="filter_result_0" values="0 0 0 0 1 0 0 0 0 1 0 0 0 0 1 0 0 0 1 0"/></filter><filter id="aE"><feColorMatrix color-interpolation-filters="sRGB" result="filter_result_0" values="0 0 0 0 1 0 0 0 0 1 0 0 0 0 1 0 0 0 1 0"/></filter><filter id="aH"><feColorMatrix color-interpolation-filters="sRGB" result="filter_result_0" values="0 0 0 0 1 0 0 0 0 1 0 0 0 0 1 0 0 0 1 0"/></filter><filter id="aL"><feColorMatrix color-interpolation-filters="sRGB" result="filter_result_0" values="0 0 0 0 1 0 0 0 0 1 0 0 0 0 1 0 0 0 1 0"/></filter><filter id="aN"><feColorMatrix color-interpolation-filters="sRGB" result="filter_result_0" values="0 0 0 0 1 0 0 0 0 1 0 0 0 0 1 0 0 0 1 0"/></filter><filter id="aO"><feColorMatrix color-interpolation-filters="sRGB" result="filter_result_0" values="0 0 0 0 1 0 0 0 0 1 0 0 0 0 1 0 0 0 1 0"/></filter><filter id="aP"><feColorMatrix color-interpolation-filters="sRGB" result="filter_result_0" values="0 0 0 0 1 0 0 0 0 1 0 0 0 0 1 0 0 0 1 0"/></filter><filter id="aQ"><feColorMatrix color-interpolation-filters="sRGB" result="filter_result_0" values="0 0 0 0 1 0 0 0 0 1 0 0 0 0 1 0 0 0 1 0"/></filter><filter id="aR"><feColorMatrix color-interpolation-filters="sRGB" result="filter_result_0" values="0 0 0 0 1 0 0 0 0 1 0 0 0 0 1 0 0 0 1 0"/></filter><filter id="aS"><feColorMatrix color-interpolation-filters="sRGB" result="filter_result_0" values="0 0 0 0 1 0 0 0 0 1 0 0 0 0 1 0 0 0 1 0"/></filter><filter id="aT"><feColorMatrix color-interpolation-filters="sRGB" result="filter_result_0" values="0 0 0 0 1 0 0 0 0 1 0 0 0 0 1 0 0 0 1 0"/></filter><filter id="ao"><feColorMatrix color-interpolation-filters="sRGB" result="filter_result_0" values="0 0 0 0 1 0 0 0 0 1 0 0 0 0 1 0 0 0 1 0"/></filter><filter id="aU"><feColorMatrix color-interpolation-filters="sRGB" result="filter_result_0" values="0 0 0 0 1 0 0 0 0 1 0 0 0 0 1 0 0 0 1 0"/></filter><filter id="ap"><feColorMatrix color-interpolation-filters="sRGB" result="filter_result_0" values="0 0 0 0 1 0 0 0 0 1 0 0 0 0 1 0 0 0 1 0"/></filter><filter id="aV"><feColorMatrix color-interpolation-filters="sRGB" result="filter_result_0" values="0 0 0 0 1 0 0 0 0 1 0 0 0 0 1 0 0 0 1 0"/></filter><filter id="aq"><feColorMatrix color-interpolation-filters="sRGB" result="filter_result_0" values="0 0 0 0 1 0 0 0 0 1 0 0 0 0 1 0 0 0 1 0"/></filter><filter id="aF"><feColorMatrix color-interpolation-filters="sRGB" result="filter_result_0" values="0 0 0 0 1 0 0 0 0 1 0 0 0 0 1 0 0 0 1 0"/></filter><filter id="aW"><feColorMatrix color-interpolation-filters="sRGB" result="filter_result_0" values="0 0 0 0 1 0 0 0 0 1 0 0 0 0 1 0 0 0 1 0"/></filter><filter id="ar"><feColorMatrix color-interpolation-filters="sRGB" result="filter_result_0" values="0 0 0 0 1 0 0 0 0 1 0 0 0 0 1 0 0 0 1 0"/></filter><filter id="au"><feColorMatrix color-interpolation-filters="sRGB" result="filter_result_0" values="0 0 0 0 1 0 0 0 0 1 0 0 0 0 1 0 0 0 1 0"/></filter><filter id="aG"><feColorMatrix color-interpolation-filters="sRGB" result="filter_result_0" values="0 0 0 0 1 0 0 0 0 1 0 0 0 0 1 0 0 0 1 0"/></filter><filter id="aK"><feColorMatrix color-interpolation-filters="sRGB" result="filter_result_0" values="0 0 0 0 1 0 0 0 0 1 0 0 0 0 1 0 0 0 1 0"/></filter><filter id="aX"><feColorMatrix color-interpolation-filters="sRGB" result="filter_result_0" values="0 0 0 0 1 0 0 0 0 1 0 0 0 0 1 0 0 0 1 0"/></filter><filter id="av"><feColorMatrix color-interpolation-filters="sRGB" result="filter_result_0" values="0 0 0 0 1 0 0 0 0 1 0 0 0 0 1 0 0 0 1 0"/></filter><filter id="aA"><feColorMatrix color-interpolation-filters="sRGB" result="filter_result_0" values="0 0 0 0 1 0 0 0 0 1 0 0 0 0 1 0 0 0 1 0"/></filter><filter id="aY"><feColorMatrix color-interpolation-filters="sRGB" result="filter_result_0" values="0 0 0 0 1 0 0 0 0 1 0 0 0 0 1 0 0 0 1 0"/></filter><filter id="aw"><feColorMatrix color-interpolation-filters="sRGB" result="filter_result_0" values="0 0 0 0 1 0 0 0 0 1 0 0 0 0 1 0 0 0 1 0"/></filter><filter id="aB"><feColorMatrix color-interpolation-filters="sRGB" result="filter_result_0" values="0 0 0 0 1 0 0 0 0 1 0 0 0 0 1 0 0 0 1 0"/></filter><filter id="aJ"><feColorMatrix color-interpolation-filters="sRGB" result="filter_result_0" values="0 0 0 0 1 0 0 0 0 1 0 0 0 0 1 0 0 0 1 0"/></filter><filter id="aZ"><feColorMatrix color-interpolation-filters="sRGB" result="filter_result_0" values="0 0 0 0 1 0 0 0 0 1 0 0 0 0 1 0 0 0 1 0"/></filter><filter id="ax"><feColorMatrix color-interpolation-filters="sRGB" result="filter_result_0" values="0 0 0 0 1 0 0 0 0 1 0 0 0 0 1 0 0 0 1 0"/></filter><filter id="ba"><feColorMatrix color-interpolation-filters="sRGB" result="filter_result_0" values="0 0 0 0 1 0 0 0 0 1 0 0 0 0 1 0 0 0 1 0"/></filter><filter id="ay"><feColorMatrix color-interpolation-filters="sRGB" result="filter_result_0" values="0 0 0 0 1 0 0 0 0 1 0 0 0 0 1 0 0 0 1 0"/></filter><filter id="bb"><feColorMatrix color-interpolation-filters="sRGB" result="filter_result_0" values="0 0 0 0 1 0 0 0 0 1 0 0 0 0 1 0 0 0 1 0"/></filter><filter id="ai"><feColorMatrix color-interpolation-filters="sRGB" result="filter_result_0" values="0 0 0 0 1 0 0 0 0 1 0 0 0 0 1 0 0 0 1 0"/></filter><filter id="aj"><feColorMatrix color-interpolation-filters="sRGB" result="filter_result_0" values="0 0 0 0 1 0 0 0 0 1 0 0 0 0 1 0 0 0 1 0"/></filter><filter id="ak"><feColorMatrix color-interpolation-filters="sRGB" result="filter_result_0" values="0 0 0 0 1 0 0 0 0 1 0 0 0 0 1 0 0 0 1 0"/></filter><filter id="al"><feColorMatrix color-interpolation-filters="sRGB" result="filter_result_0" values="0 0 0 0 1 0 0 0 0 1 0 0 0 0 1 0 0 0 1 0"/></filter><filter id="ae"><feColorMatrix color-interpolation-filters="sRGB" result="filter_result_0" values="0 0 0 0 1 0 0 0 0 1 0 0 0 0 1 0 0 0 1 0"/></filter><filter id="ad"><feColorMatrix color-interpolation-filters="sRGB" result="filter_result_0" values="0 0 0 0 1 0 0 0 0 1 0 0 0 0 1 0 0 0 1 0"/></filter><filter id="ac"><feColorMatrix color-interpolation-filters="sRGB" result="filter_result_0" values="0 0 0 0 1 0 0 0 0 1 0 0 0 0 1 0 0 0 1 0"/></filter><filter id="ab"><feColorMatrix color-interpolation-filters="sRGB" result="filter_result_0" values="0 0 0 0 1 0 0 0 0 1 0 0 0 0 1 0 0 0 1 0"/></filter><filter id="aa"><feColorMatrix color-interpolation-filters="sRGB" result="filter_result_0" values="0 0 0 0 1 0 0 0 0 1 0 0 0 0 1 0 0 0 1 0"/></filter><filter id="Z"><feColorMatrix color-interpolation-filters="sRGB" result="filter_result_0" values="0 0 0 0 1 0 0 0 0 1 0 0 0 0 1 0 0 0 1 0"/></filter><filter id="Y"><feColorMatrix color-interpolation-filters="sRGB" result="filter_result_0" values="0 0 0 0 1 0 0 0 0 1 0 0 0 0 1 0 0 0 1 0"/></filter><filter id="X"><feColorMatrix color-interpolation-filters="sRGB" result="filter_result_0" values="0 0 0 0 1 0 0 0 0 1 0 0 0 0 1 0 0 0 1 0"/></filter><filter id="W"><feColorMatrix color-interpolation-filters="sRGB" result="filter_result_0" values="0 0 0 0 1 0 0 0 0 1 0 0 0 0 1 0 0 0 1 0"/></filter><filter id="V"><feColorMatrix color-interpolation-filters="sRGB" result="filter_result_0" values="0 0 0 0 1 0 0 0 0 1 0 0 0 0 1 0 0 0 1 0"/></filter><filter id="U"><feColorMatrix color-interpolation-filters="sRGB" result="filter_result_0" values="0 0 0 0 1 0 0 0 0 1 0 0 0 0 1 0 0 0 1 0"/></filter><filter id="T"><feColorMatrix color-interpolation-filters="sRGB" result="filter_result_0" values="0 0 0 0 1 0 0 0 0 1 0 0 0 0 1 0 0 0 1 0"/></filter><filter id="S"><feColorMatrix color-interpolation-filters="sRGB" result="filter_result_0" values="0 0 0 0 1 0 0 0 0 1 0 0 0 0 1 0 0 0 1 0"/></filter><filter id="R"><feColorMatrix color-interpolation-filters="sRGB" result="filter_result_0" values="0 0 0 0 1 0 0 0 0 1 0 0 0 0 1 0 0 0 1 0"/></filter><filter id="Q"><feColorMatrix color-interpolation-filters="sRGB" result="filter_result_0" values="0 0 0 0 1 0 0 0 0 1 0 0 0 0 1 0 0 0 1 0"/></filter><filter id="P"><feColorMatrix color-interpolation-filters="sRGB" result="filter_result_0" values="0 0 0 0 1 0 0 0 0 1 0 0 0 0 1 0 0 0 1 0"/></filter><filter id="A"><feColorMatrix color-interpolation-filters="sRGB" result="filter_result_0" values="0 0 0 0 1 0 0 0 0 1 0 0 0 0 1 0 0 0 1 0"/></filter><filter id="N"><feColorMatrix color-interpolation-filters="sRGB" result="filter_result_0" values="0 0 0 0 1 0 0 0 0 1 0 0 0 0 1 0 0 0 1 0"/></filter><filter id="B"><feColorMatrix color-interpolation-filters="sRGB" result="filter_result_0" values="0 0 0 0 1 0 0 0 0 1 0 0 0 0 1 0 0 0 1 0"/></filter><filter id="C"><feColorMatrix color-interpolation-filters="sRGB" result="filter_result_0" values="0 0 0 0 1 0 0 0 0 1 0 0 0 0 1 0 0 0 1 0"/></filter><filter id="D"><feColorMatrix color-interpolation-filters="sRGB" result="filter_result_0" values="0 0 0 0 1 0 0 0 0 1 0 0 0 0 1 0 0 0 1 0"/></filter><filter id="E"><feColorMatrix color-interpolation-filters="sRGB" result="filter_result_0" values="0 0 0 0 1 0 0 0 0 1 0 0 0 0 1 0 0 0 1 0"/></filter><filter id="I"><feColorMatrix color-interpolation-filters="sRGB" result="filter_result_0" values="0 0 0 0 1 0 0 0 0 1 0 0 0 0 1 0 0 0 1 0"/></filter><filter id="F"><feColorMatrix color-interpolation-filters="sRGB" result="filter_result_0" values="0 0 0 0 1 0 0 0 0 1 0 0 0 0 1 0 0 0 1 0"/></filter><filter id="J"><feColorMatrix color-interpolation-filters="sRGB" result="filter_result_0" values="0 0 0 0 1 0 0 0 0 1 0 0 0 0 1 0 0 0 1 0"/></filter><filter id="o"><feColorMatrix color-interpolation-filters="sRGB" result="filter_result_0" values="0 0 0 0 1 0 0 0 0 1 0 0 0 0 1 0 0 0 1 0"/></filter><filter id="G"><feColorMatrix color-interpolation-filters="sRGB" result="filter_result_0" values="0 0 0 0 1 0 0 0 0 1 0 0 0 0 1 0 0 0 1 0"/></filter><filter id="K"><feColorMatrix color-interpolation-filters="sRGB" result="filter_result_0" values="0 0 0 0 1 0 0 0 0 1 0 0 0 0 1 0 0 0 1 0"/></filter><filter id="L"><feColorMatrix color-interpolation-filters="sRGB" result="filter_result_0" values="0 0 0 0 1 0 0 0 0 1 0 0 0 0 1 0 0 0 1 0"/></filter><filter id="p"><feColorMatrix color-interpolation-filters="sRGB" result="filter_result_0" values="0 0 0 0 1 0 0 0 0 1 0 0 0 0 1 0 0 0 1 0"/></filter><filter id="H"><feColorMatrix color-interpolation-filters="sRGB" result="filter_result_0" values="0 0 0 0 1 0 0 0 0 1 0 0 0 0 1 0 0 0 1 0"/></filter><filter id="q"><feColorMatrix color-interpolation-filters="sRGB" result="filter_result_0" values="0 0 0 0 1 0 0 0 0 1 0 0 0 0 1 0 0 0 1 0"/></filter><filter id="r"><feColorMatrix color-interpolation-filters="sRGB" result="filter_result_0" values="0 0 0 0 1 0 0 0 0 1 0 0 0 0 1 0 0 0 1 0"/></filter><filter id="s"><feColorMatrix color-interpolation-filters="sRGB" result="filter_result_0" values="0 0 0 0 1 0 0 0 0 1 0 0 0 0 1 0 0 0 1 0"/></filter><filter id="t"><feColorMatrix color-interpolation-filters="sRGB" result="filter_result_0" values="0 0 0 0 1 0 0 0 0 1 0 0 0 0 1 0 0 0 1 0"/></filter><filter id="v"><feColorMatrix color-interpolation-filters="sRGB" result="filter_result_0" values="0 0 0 0 1 0 0 0 0 1 0 0 0 0 1 0 0 0 1 0"/></filter><filter id="h"><feColorMatrix color-interpolation-filters="sRGB" result="filter_result_0" values="0 0 0 0 1 0 0 0 0 1 0 0 0 0 1 0 0 0 1 0"/></filter><filter id="u"><feColorMatrix color-interpolation-filters="sRGB" result="filter_result_0" values="0 0 0 0 1 0 0 0 0 1 0 0 0 0 1 0 0 0 1 0"/></filter><filter id="w"><feColorMatrix color-interpolation-filters="sRGB" result="filter_result_0" values="0 0 0 0 1 0 0 0 0 1 0 0 0 0 1 0 0 0 1 0"/></filter><filter id="i"><feColorMatrix color-interpolation-filters="sRGB" result="filter_result_0" values="0 0 0 0 1 0 0 0 0 1 0 0 0 0 1 0 0 0 1 0"/></filter><filter id="x"><feColorMatrix color-interpolation-filters="sRGB" result="filter_result_0" values="0 0 0 0 1 0 0 0 0 1 0 0 0 0 1 0 0 0 1 0"/></filter><filter id="j"><feColorMatrix color-interpolation-filters="sRGB" result="filter_result_0" values="0 0 0 0 1 0 0 0 0 1 0 0 0 0 1 0 0 0 1 0"/></filter><filter id="k"><feColorMatrix color-interpolation-filters="sRGB" result="filter_result_0" values="0 0 0 0 1 0 0 0 0 1 0 0 0 0 1 0 0 0 1 0"/></filter><filter id="l"><feColorMatrix color-interpolation-filters="sRGB" result="filter_result_0" values="0 0 0 0 1 0 0 0 0 1 0 0 0 0 1 0 0 0 1 0"/></filter><filter id="f"><feColorMatrix color-interpolation-filters="sRGB" result="filter_result_0" values="0 0 0 0 1 0 0 0 0 1 0 0 0 0 1 0 0 0 1 0"/></filter><filter id="m"><feColorMatrix color-interpolation-filters="sRGB" result="filter_result_0" values="0 0 0 0 1 0 0 0 0 1 0 0 0 0 1 0 0 0 1 0"/></filter><clipPath id="a"><path d="M0 0h1920v692H0z"/></clipPath><clipPath id="b"><path d="M0 0h1920v1080H0z"/></clipPath><clipPath id="af"><path d="M0 0h1920v1080H0z"/></clipPath><clipPath id="ag"><path d="M0 0h1920v1080H0z"/></clipPath><clipPath id="am"><path d="M0 0h1920v1080H0z"/></clipPath><clipPath id="as"><path d="M0 0h1920v1080H0z"/></clipPath><clipPath id="aC"><path d="M0 0h1920v1080H0z"/></clipPath><clipPath id="aI"><path d="M0 0h1920v1080H0z"/></clipPath><clipPath id="aM"><path d="M0 0h1920v1080H0z"/></clipPath><clipPath id="d"><path d="M0 0h1920v1080H0z"/></clipPath><clipPath id="O"><path d="M0 0h1920v1080H0z"/></clipPath><clipPath id="M"><path d="M0 0h1920v1080H0z"/></clipPath><clipPath id="y"><path d="M0 0h1920v1080H0z"/></clipPath><clipPath id="n"><path d="M0 0h1920v1080H0z"/></clipPath><clipPath id="g"><path d="M0 0h1920v1080H0z"/></clipPath><clipPath id="e"><path d="M0 0h1920v1080H0z"/></clipPath><mask id="aD"><path fill="#fff" d="M0 0h1920v1080H0z"/><path d="M1101 414c-56-27-187 56-184 56s166 37 182 36 58-65 2-92"/></mask><mask id="z"><path fill="#fff" d="M0 0h1920v1080H0z"/><path d="M1101 414c-56-27-187 56-184 56s166 37 182 36 58-65 2-92"/></mask></defs><g clip-path="url(#a)"><g clip-path="url(#b)" filter="url(#c)" style="display:block" transform="translate(0 -197)"><g clip-path="url(#af)" style="display:block"><g clip-path="url(#ag)" style="display:block"><g filter="url(#ah)" style="display:block" transform="matrix(2.94 0 0 2.94 389.17 333.26)"><path fill="#231F1F" d="M376.158 60.403c6.261-.144 10.694-2.054 11.779-8.002.644-3.541-1.43-5.804-5.456-5.985 0 0-11.678-.616-25.126-1.21 0 0-19.998-.821-25.577-.935-4.99-.119-9.833-.16-13.202-.1-3.139.056-4.616 1.661-5.26 4.248-.643 2.587-1.169 6.261-1.381 10.079-.161 2.897 2.99 4.267 6.239 4.148 0 0 3.992-.181 10.237-.481 7.076-.264 26.332-1.123 26.332-1.123 6.761-.244 14.273-.475 21.415-.639z"/></g></g><g clip-path="url(#am)" style="display:block"><g filter="url(#an)" style="display:block" transform="matrix(2.94 0 0 2.94 389.17 333.26)"><path fill="#231F1F" d="M357.355 45.206s2.72-14.924 4.051-21.005c.653-2.985-.924-5.938-4.686-6.851-3.737-.906-12.321-.966-15.202-.643-2.407.269-4.746 1.708-5.289 4.204-1.356 6.239-2.769 13.744-4.451 23.36-.884 4.45-2.584 12.443-3.367 17.894-1.158 5.466-3.372 20.138-4.346 29.244-1.164 10.884-1.844 17.346-1.079 26.659 2.206 16.871 11.012 23.541 25.337 23.541 13.15 0 25.806-8.337 34.765-23.427 1.788-3.01 3.093-5.642 1.958-6.948-2.603-2.992-7.565-4.545-8.922-2.062-5.911 10.818-12.26 15.176-19.173 15.176-5.467 0-9.892-3.251-9.892-12.74 0-13.654 7.684-50.566 7.684-50.566.981-4.158 2.001-9.94 2.612-15.836z"/></g></g><g clip-path="url(#as)" style="display:block"><g filter="url(#at)" style="display:block" transform="matrix(2.94 0 0 2.94 389.17 333.26)"><path fill="#231F1F" d="M328.411 62.165c-1.158 5.466-3.469 20.128-4.346 29.244-5.639 18.952-17.349 32.94-27.431 32.94-6.176 0-9.859-3.666-9.859-14.787 0-15.391 3.536-34.856 8.692-54.365 3.454-17.87 7.196-35.387 8.058-44.932.298-3.304 2.39-7.88-1.586-8.67-7.173-1.425-13.994-1.162-18.772.327-4.268 1.329-5.143 5.82-5.656 8.214-2.465 11.508-6.503 31.903-9.329 49.783-.893 6.149-2.424 13.632-3.709 20.985 0 0-4.042 20.416-4.042 32.402 0 18.174 7.798 28.303 26.117 28.303 15.07 0 28.221-10.628 36.438-23.541 7.738-12.884 19.512-56.346 19.512-56.346 6.761-.244-20.332.743-14.087.443z"/></g><g filter="url(#az)" style="display:block" transform="matrix(2.94 0 0 2.94 389.17 333.26)"><path fill="#231F1F" d="M345.996 45.13s.643-14.85 1.974-20.931c.653-2.985-3.571-7.815-6.452-7.492-2.407.269-4.746 1.708-5.289 4.204-1.356 6.239-4.451 23.36-4.451 23.36l-3.367 17.894s-3.469 20.128-4.346 29.244c-5.639 18.952-17.349 32.94-27.431 32.94-6.176 0-9.859-3.666-9.859-14.787 0-15.391-26.344-8.242-26.344 3.744 0 18.174 7.798 28.303 26.117 28.303 15.07 0 28.221-10.628 36.438-23.541 12.625-23.67 19.812-55.035 19.812-55.035l3.198-17.903z"/></g></g><g clip-path="url(#aC)" style="display:block"><g mask="url(#aD)"><g filter="url(#aE)" style="display:block" transform="matrix(2.94 0 0 2.94 389.17 333.26)"><path fill="#231F1F" d="M287.304 48.394c7.275-17.501.641-47.961-4.137-46.472-4.268 1.329-.891 29.97-1.404 32.364-2.465 11.508-4.1 12.394-13.581 25.633-6.28 7.601-13.491 12.941-21.296 14.257-21.944 2.266-25.175-7.768-16.963-21.947 12.802-22.103-4.145-14.396-12.492.086-2.545 4.416-3.211 9.516-3.359 14.524-.185 6.261.836 14.195 9.012 20.051 8.861 6.347 15.96 5.091 22.636 3.79 7.163-1.451 13.386-4.944 18.753-9.776 0 0 17.675-13.001 22.831-32.51z"/></g><g filter="url(#aH)" style="display:block" transform="matrix(2.94 0 0 2.94 389.17 333.26)"><path fill="#231F1F" d="M295.467 55.197c7.275-17.501 11.459-36.962 11.459-45.783 0-3.317-1.011-7.029-4.987-7.819-7.173-1.425-13.994-1.162-18.772.327-4.268 1.329.98 8.711.467 11.105-2.465 11.508 6.677 61.679 11.833 42.17z"/></g></g></g><g clip-path="url(#aI)" style="display:block"><g filter="url(#aL)" style="display:block" transform="matrix(2.94 0 0 2.94 389.17 333.26)"><path fill="#231F1F" d="M198.302 126.932c-7.666 0-12.797-6.607-12.797-19.72 0-25.156 8.952-52.22 25.033-52.22 1.809 0 3.415.242 4.834.806 5.063 1.766 8.464 19.284 6.814 30.614-3.486 22.088-13.254 40.52-23.884 40.52zm48.584-52.756c-1.213-23.678-14.99-33.851-33.97-33.851-33.332 0-54.577 29.695-54.577 63.025 0 27 14.732 38.259 36.175 38.259 25.322 0 44.166-17.972 51.206-50.929.991-5.82 1.161-9.986 1.166-16.504z"/></g></g><g clip-path="url(#aM)" style="display:block"><g filter="url(#aN)" style="display:block" transform="matrix(2.94 0 0 2.94 389.17 333.26)"><path fill="#231F1F" d="M145.989.655c-4.432 0-8.363.221-10.306.422-3.877.401-5.19 4.084-4.908 7.709 4.081 52.487-7.472 113.569-20.622 113.569-9.791 0-12.518-28.549-12.518-53.944 0-15.009.857-29.464 1.216-42.239.132-4.739-1.59-5.631-5.014-6.047-5.189-.63-8.904-.625-14.056.516-3.936.872-4.862 4.102-9.001 13.943-20.619 49.024-40.51 88.4-40.51 88.4-5.259-39.469 1.49-77.753 7.24-105.697.794-3.848-1.041-6.121-4.202-6.066-5.953.104-15.093.295-19.217 2.995-3.867 2.531-5.302 5.233-6.418 10.826C1.29 57.044-2.864 97.188 3.557 128.23c1.388 6.709 2.946 8.294 5.779 10.049 2.833 1.756 14.995 3.33 19.711 3.33 5.355 0 10.259-1.442 14.338-8.435 8.636-14.806 15.553-29.594 28.621-58.077 1.346 37.112 6.583 66.243 32.659 66.243 34.561 0 56.869-86.348 56.869-127.896 0-10.991-5.449-12.789-15.545-12.789z"/></g></g></g></g></g></svg>